<svg xmlns="http://www.w3.org/2000/svg" viewBox="0 0 24 24" height="48" width="48"><title>electronic-e-sport-games-moba-multiplayer-online-battle-arena-1</title><g><path d="M1.05,14.69c.67-.57,1.32-1.14,2-1.73,1-.88,1.91-1.78,2.85-2.7A.43.43,0,0,0,6,9.91L5.8,5.57l4.91,0A.45.45,0,0,0,11,5.39c.69-.75,1.58-1.69,2.4-2.63C14,2.12,14.53,1.48,15,.92A.55.55,0,0,0,15,.32.58.58,0,0,0,14.5,0c-1.43,0-2.91.05-4.42.11-2.2.1-4.43.25-6.6.32-.93,0-1.85,0-2.75,0A.35.35,0,0,0,.38.81.42.42,0,0,0,.42,1C.36,4.05.19,7.13.12,10.22c0,1.34,0,2.69,0,4a.56.56,0,0,0,.33.52A.59.59,0,0,0,1.05,14.69ZM6.25,1.25c1.38,0,2.77,0,4.14,0l2.91-.06h0L10.47,4.65,5.58,5a.32.32,0,0,0-.14,0,.35.35,0,0,0-.34.35l0,4.45L1.24,13c0-1.38,0-2.76,0-4.14,0-2.57-.09-5.14-.18-7.71C2.72,1.23,4.48,1.25,6.25,1.25Z" fill="#191919"></path><path d="M23.89,10.21a.56.56,0,0,0-.33-.51.57.57,0,0,0-.61.08c-.64.55-1.28,1.1-1.9,1.67-.94.85-1.85,1.72-2.75,2.61a.47.47,0,0,0-.15.35l.21,4.18-4.73,0a.47.47,0,0,0-.33.16c-.67.72-1.53,1.63-2.32,2.53-.54.62-1.05,1.24-1.47,1.78a.55.55,0,0,0-.06.6A.58.58,0,0,0,10,24c.87,0,1.76,0,2.67-.05,3.53-.12,7.24-.41,10.63-.42a.34.34,0,0,0,.35-.33.28.28,0,0,0,0-.15c.07-3,.23-6,.3-8.94C23.91,12.81,23.9,11.51,23.89,10.21Zm-10,12.58-2.77.05h0l2.7-3.34,4.71-.3a.37.37,0,0,0,.15,0,.34.34,0,0,0,.33-.35V14.59h0l3.71-3.15c0,1.32,0,2.64,0,4,0,2.48.09,5,.19,7.44-1.63-.06-3.32-.08-5-.08C16.61,22.76,15.27,22.77,13.94,22.79Z" fill="#191919"></path><path d="M15.49,8.23,8.83,8.3a.58.58,0,0,0-.56.59c0,1.1,0,2.21.06,3.31s.1,2.21.19,3.33A.49.49,0,0,0,9,16c1,0,2.19,0,3.37-.05s2.35-.12,3.36-.2c.19,0,.31,0,.33-2.36C16,11.81,16,10.25,16,8.7a.48.48,0,0,0-.16-.34A.45.45,0,0,0,15.49,8.23Zm-3.14,6.88c-1,0-2,0-2.87-.07l-.05-5.6c1.14,0,2.29,0,3.43-.08.73,0,1.47-.08,2.2-.13h0c.08,1.38.21,2.77.29,4.16,0,.56.05,1.11.05,1.67C14.46,15.09,13.4,15.11,12.35,15.11Z" fill="#191919"></path><path d="M13.72,6.62a.3.3,0,0,0,.43,0c1-.88,2.25-2,3.4-3.1.72-.71,1.38-1.46,2-2.08l.13,0c.75-.06,2.49-.17,3.28-.18H23l-.48,4.14h0l0,.11h0c-.06.06-.15.12-.22.2-.39.39-1,1-1.72,1.67-1.15,1.12-2.44,2.46-3.17,3.28a.34.34,0,1,0,.48.48c.75-.7,2.06-1.77,3.2-2.76.51-.43,1-.85,1.36-1.22a9.53,9.53,0,0,0,1-1,.82.82,0,0,0,.18-.45l0-4.58a.37.37,0,0,0,0-.15.35.35,0,0,0-.33-.36l-.41,0C22.14.45,20.37.37,19.6.37a1.31,1.31,0,0,0-.73.18c-.62.65-1.39,1.38-2.13,2.19-1.09,1.18-2.14,2.47-3,3.45A.32.32,0,0,0,13.72,6.62Z" fill="#0c6fff"></path><polygon points="22.52 5.37 22.52 5.37 22.52 5.37 22.52 5.37" fill="#191919"></polygon><path d="M10.6,17.53a.31.31,0,0,0-.42,0c-1,.88-2.26,2-3.4,3.1-.73.72-1.39,1.46-2,2.09l-.13,0c-.76.07-2.49.17-3.28.19H1.32l.49-4.14h0v-.09h0v0l.23-.2c.38-.39,1-1,1.72-1.66C4.92,15.68,6.22,14.35,7,13.52a.34.34,0,0,0,0-.48.34.34,0,0,0-.48,0c-.75.71-2,1.77-3.2,2.76-.5.44-1,.86-1.36,1.22a11.12,11.12,0,0,0-1,1.05.83.83,0,0,0-.19.45l0,4.58a.57.57,0,0,0,0,.14.39.39,0,0,0,.34.37l.4,0c.8.05,2.57.13,3.34.13a1.22,1.22,0,0,0,.74-.18c.62-.64,1.39-1.38,2.13-2.18,1.08-1.19,2.14-2.48,3-3.46A.3.3,0,0,0,10.6,17.53Z" fill="#0c6fff"></path></g></svg>